{"asset":{"version":"2.0","generator":"Unity 2020.3.37f1 glTFast 5.2.0"},"nodes":[{"name":"Node-3","mesh":0},{"name":"Node-4","mesh":1},{"name":"bk-tv-man.obj.cleaner.gles","children":[0,1],"translation":[-35.084198,-32.05726,-46.8428268]},{"name":"RootNode (model correction matrix)","children":[2]},{"name":"scene","children":[3],"rotation":[-0.7071068,0,0,0.7071068]}],"buffers":[{"uri":"scene.bin","byteLength":4518584}],"bufferViews":[{"buffer":0,"byteLength":1491744},{"buffer":0,"byteLength":364056,"byteOffset":1491744},{"buffer":0,"byteLength":1572768,"byteOffset":1855800,"byteStride":24},{"buffer":0,"byteLength":524256,"byteOffset":3428568,"byteStride":8},{"buffer":0,"byteLength":424320,"byteOffset":3952824,"byteStride":24},{"buffer":0,"byteLength":141440,"byteOffset":4377144,"byteStride":8}],"accessors":[{"bufferView":2,"componentType":5126,"count":65532,"type":"VEC3","max":[69.86868,98.76076,78.18745],"min":[5.00144958,6.56576157,0]},{"bufferView":2,"componentType":5126,"count":65532,"type":"VEC3","byteOffset":12},{"bufferView":3,"componentType":5126,"count":65532,"type":"VEC2"},{"bufferView":0,"componentType":5125,"count":372936,"type":"SCALAR"},{"bufferView":4,"componentType":5126,"count":17680,"type":"VEC3","max":[67.04746,96.73458,61.66549],"min":[0,0,0.5160866]},{"bufferView":4,"componentType":5126,"count":17680,"type":"VEC3","byteOffset":12},{"bufferView":5,"componentType":5126,"count":17680,"type":"VEC2"},{"bufferView":1,"componentType":5125,"count":91014,"type":"SCALAR"}],"materials":[{"name":"material_0","pbrMetallicRoughness":{"metallicFactor":0}}],"meshes":[{"primitives":[{"attributes":{"POSITION":0,"NORMAL":1,"TEXCOORD_0":2},"indices":3,"material":0}]},{"primitives":[{"attributes":{"POSITION":4,"NORMAL":5,"TEXCOORD_0":6},"indices":7,"material":0}]}],"scene":0,"scenes":[{"name":"scene","nodes":[4]}]}